<svg version="1.1" id="Layer_1" xmlns="http://www.w3.org/2000/svg" xmlns:xlink="http://www.w3.org/1999/xlink" x="0px" y="0px"
	 width="100%" viewBox="0 0 196 196" enable-background="new 0 0 196 196" xml:space="preserve">
<path fill="#815AEF" opacity="1.000000" stroke="none" 
	d="
M139.000000,197.000000 
	C92.666672,197.000000 46.833340,197.000000 1.000006,197.000000 
	C1.000004,131.666672 1.000004,66.333344 1.000002,1.000015 
	C66.333321,1.000010 131.666641,1.000010 196.999969,1.000005 
	C196.999985,66.333321 196.999985,131.666641 197.000000,196.999969 
	C177.833328,197.000000 158.666672,197.000000 139.000000,197.000000 
M134.512375,54.187893 
	C138.975815,46.549294 138.888306,45.616398 131.381332,41.358883 
	C127.985672,39.433067 124.246300,37.633713 120.454063,36.970024 
	C104.306473,34.143993 92.431175,37.075317 85.982239,53.151070 
	C82.740265,61.232567 82.519463,70.572281 81.307930,79.394569 
	C80.932350,82.129463 80.449524,83.589874 77.389969,83.847717 
	C68.710693,84.579155 68.718849,84.686218 68.650665,93.578484 
	C68.640450,94.910835 68.627098,96.243454 68.642105,97.575653 
	C68.708931,103.507217 69.256737,104.291672 75.301926,104.038681 
	C79.891701,103.846603 81.320366,105.406273 81.235199,110.038567 
	C80.959694,125.023186 81.226509,140.017059 81.064453,155.004990 
	C81.024483,158.701218 82.152473,160.069763 85.927620,159.804794 
	C90.570328,159.478912 95.248886,159.631454 99.911903,159.634750 
	C107.022972,159.639801 107.028481,159.660767 107.030579,152.302002 
	C107.034714,137.811981 107.119873,123.321022 106.968071,108.832588 
	C106.931892,105.379150 108.048698,104.023796 111.523201,104.157852 
	C115.845650,104.324623 120.182892,104.200058 124.511162,104.094841 
	C127.973648,104.010681 130.205093,102.723701 129.849991,98.653725 
	C129.590256,95.676651 129.617386,92.655487 129.766205,89.666405 
	C129.976501,85.442513 128.338165,83.605484 123.921509,83.842026 
	C119.443954,84.081825 114.935165,83.705292 110.439430,83.652237 
	C107.953743,83.622902 106.904694,82.542015 106.999496,79.971100 
	C107.152832,75.812851 106.959419,71.642761 107.067787,67.481712 
	C107.275444,59.508030 113.530098,55.581295 120.784050,58.991516 
	C123.725510,60.374344 126.402283,62.320206 129.743729,64.338623 
	C131.294235,61.074509 132.763397,57.981602 134.512375,54.187893 
z"/>
<path fill="#161C2C" opacity="1.000000" stroke="none" 
	d="
M134.372467,54.538292 
	C132.763397,57.981602 131.294235,61.074509 129.743729,64.338623 
	C126.402283,62.320206 123.725510,60.374344 120.784050,58.991516 
	C113.530098,55.581295 107.275444,59.508030 107.067787,67.481712 
	C106.959419,71.642761 107.152832,75.812851 106.999496,79.971100 
	C106.904694,82.542015 107.953743,83.622902 110.439430,83.652237 
	C114.935165,83.705292 119.443954,84.081825 123.921509,83.842026 
	C128.338165,83.605484 129.976501,85.442513 129.766205,89.666405 
	C129.617386,92.655487 129.590256,95.676651 129.849991,98.653725 
	C130.205093,102.723701 127.973648,104.010681 124.511162,104.094841 
	C120.182892,104.200058 115.845650,104.324623 111.523201,104.157852 
	C108.048698,104.023796 106.931892,105.379150 106.968071,108.832588 
	C107.119873,123.321022 107.034714,137.811981 107.030579,152.302002 
	C107.028481,159.660767 107.022972,159.639801 99.911903,159.634750 
	C95.248886,159.631454 90.570328,159.478912 85.927620,159.804794 
	C82.152473,160.069763 81.024483,158.701218 81.064453,155.004990 
	C81.226509,140.017059 80.959694,125.023186 81.235199,110.038567 
	C81.320366,105.406273 79.891701,103.846603 75.301926,104.038681 
	C69.256737,104.291672 68.708931,103.507217 68.642105,97.575653 
	C68.627098,96.243454 68.640450,94.910835 68.650665,93.578484 
	C68.718849,84.686218 68.710693,84.579155 77.389969,83.847717 
	C80.449524,83.589874 80.932350,82.129463 81.307930,79.394569 
	C82.519463,70.572281 82.740265,61.232567 85.982239,53.151070 
	C92.431175,37.075317 104.306473,34.143993 120.454063,36.970024 
	C124.246300,37.633713 127.985672,39.433067 131.381332,41.358883 
	C138.888306,45.616398 138.975815,46.549294 134.372467,54.538292 
z"/>
</svg>