<?xml version="1.0" encoding="UTF-8"?><svg id="Layer_1" xmlns="http://www.w3.org/2000/svg" viewBox="0 0 432 128"><defs><style>.cls-1{fill:#131e36;stroke-width:0px;}</style></defs><polygon class="cls-1" points="404.68 62.68 404.68 116.24 417 116.24 417 57.11 404.68 62.68"/><path class="cls-1" d="M384.27,100.04c0,5.17-3.28,8.1-9.14,8.1-2.93,0-4.31-1.12-4.31-3.1,0-1.64,1.12-2.85,4.48-4.22l8.96-3.71v2.93ZM400.21,116.24v-9.82h-2.5c-1.55,0-2.24-.6-2.24-2.5v-14.48c0-10.6-6.21-16.29-16.89-16.29-9.05,0-16.03,4.22-20.25,8.79l6.21,8.96c2.93-4.22,7.84-7.24,13.18-7.24,4.65,0,6.29,1.98,6.72,5.52l-12.93,4.83c-8.01,2.76-12.06,6.46-12.06,12.84,0,6.81,4.57,10.34,11.12,10.34,8.62,0,12.32-6.38,13.7-11.89v2.84c0,6.03,4.14,8.1,8.7,8.1h7.24Z"/><path class="cls-1" d="M356.74,114c-1.6-1.71-2.53-4.1-2.53-7.15,0-1.51.23-2.87.69-4.1-1.35,1.88-3.35,3.41-5.6,3.41-2.41,0-4.14-1.21-4.14-4.65v-18.1h8.94v-9.39h-8.94v-11.46l-12.32,6.46v5h-6.29v9.39h6.29v20.34c0,7.84,4.39,13.36,13.7,13.36,4.47,0,7.91-1.44,10.2-3.1"/><path class="cls-1" d="M295.78,95.13c0-7.76,3.62-11.72,9.05-11.72s7.93,3.19,8.96,8.45l10.26-5.95c-2.59-7.24-9.57-12.76-19.65-12.76-13.01,0-21.2,9.13-21.2,21.98s8.19,21.98,21.2,21.98c10.08,0,17.06-5.52,19.65-12.76l-10.26-5.95c-1.03,5.26-3.71,8.45-8.96,8.45s-9.05-3.96-9.05-11.72"/><path class="cls-1" d="M264.94,100.04c0,5.17-3.28,8.1-9.13,8.1-2.93,0-4.31-1.12-4.31-3.1,0-1.64,1.12-2.85,4.48-4.22l8.96-3.71v2.93ZM280.88,116.24v-9.82h-2.5c-1.55,0-2.24-.6-2.24-2.5v-14.48c0-10.6-6.21-16.29-16.89-16.29-5.81,0-10.76,1.75-14.69,4.2.98,1.69,1.5,3.84,1.5,6.4s-.48,5.02-1.08,6.84l.22.32c2.93-4.22,7.84-7.24,13.18-7.24,4.65,0,6.29,1.98,6.72,5.52l-12.93,4.83c-8.01,2.76-12.06,6.46-12.06,12.84,0,6.81,4.57,10.34,11.12,10.34,8.62,0,12.32-6.38,13.7-11.89v2.84c0,6.03,4.14,8.1,8.7,8.1h7.24Z"/><path class="cls-1" d="M238.87,93.58c1.03-1.64,2.41-5.26,2.41-9.82,0-6.64-3.45-10.6-9.65-10.6-8.1,0-12.24,7.07-13.62,14.13v-13.27l-12.32,6.26v35.96h12.32v-22.32c0-6.98,3.96-11.55,8.19-11.55,2.67,0,3.79,1.81,3.79,4.22s-1.46,5.43-3.02,6.98h11.89Z"/><path class="cls-1" d="M200,71.26l4.22-8.79c-1.98-1.72-4.68-4.15-10.24-4.83-12.27-1.5-16.67,6.76-16.9,21.6v1.03h-5.86v9.39h5.86v26.57h12.32v-26.57h10.6v-9.39h-10.6v-8.07c0-2.76,1.29-4.39,4.22-4.39,2.58,0,4.83,1.55,6.38,3.45"/><path class="cls-1" d="M112.84,76.87h27.22v-21h-27.22c-17.35,0-31.46,14.11-31.46,31.46v29.85h21v-29.85c0-5.77,4.69-10.46,10.46-10.46"/><path class="cls-1" d="M41.67,76.87h27.22v-21h-27.22c-17.35,0-31.46,14.11-31.46,31.46v29.85h21v-29.85c0-5.77,4.69-10.46,10.46-10.46"/><path class="cls-1" d="M41.67,29.79h27.22V8.79h-27.22c-17.35,0-31.46,14.11-31.46,31.46v6.48h21v-6.48c0-5.77,4.69-10.46,10.46-10.46"/></svg>